<svg xmlns="http://www.w3.org/2000/svg" xmlns:xlink="http://www.w3.org/1999/xlink" width="500" zoomAndPan="magnify" viewBox="0 0 375 374.999991" height="500" preserveAspectRatio="xMidYMid meet" version="1.0"><defs><clipPath id="1633f53ae4"><path d="M 37.5 178 L 218 178 L 218 284.0625 L 37.5 284.0625 Z M 37.5 178 " clip-rule="nonzero"/></clipPath><clipPath id="bc915734f3"><path d="M 8.167969 18.519531 L 120.667969 18.519531 L 120.667969 131.019531 L 8.167969 131.019531 Z M 8.167969 18.519531 " clip-rule="nonzero"/></clipPath><clipPath id="5ce25d3917"><path d="M 0.167969 0.519531 L 112.667969 0.519531 L 112.667969 113.019531 L 0.167969 113.019531 Z M 0.167969 0.519531 " clip-rule="nonzero"/></clipPath><clipPath id="91d87748a9"><rect x="0" width="113" y="0" height="114"/></clipPath></defs><path fill="#000000" d="M 233.167969 101.761719 C 230.261719 100.003906 226.492188 100.9375 224.738281 103.847656 C 222.984375 106.753906 223.917969 110.535156 226.816406 112.292969 L 262.808594 134.074219 L 274.507812 136.546875 C 276.730469 137.015625 278.632812 138.324219 279.871094 140.226562 C 281.109375 142.132812 281.535156 144.40625 281.066406 146.628906 C 280.242188 150.542969 276.75 153.382812 272.761719 153.382812 C 272.175781 153.382812 271.582031 153.320312 271.003906 153.199219 L 249.355469 148.625 C 245.367188 153.550781 242.269531 158.554688 239.507812 164.53125 C 237.84375 168.128906 236.304688 172.078125 234.769531 176.582031 C 231.855469 188.277344 238.359375 193.84375 245.234375 197.316406 C 245.582031 197.585938 245.941406 197.839844 246.332031 198.066406 L 276.449219 215.574219 L 302.78125 253.359375 C 304.769531 256.214844 307.949219 257.742188 311.179688 257.742188 C 313.203125 257.742188 315.246094 257.144531 317.03125 255.894531 C 321.664062 252.652344 322.796875 246.261719 319.5625 241.621094 L 291.933594 201.976562 C 291.078125 200.75 289.96875 199.726562 288.679688 198.976562 L 266.039062 185.8125 C 268.269531 181.042969 271.175781 176.414062 274.257812 172.054688 C 278.476562 166.089844 283.027344 160.644531 286.632812 156.082031 C 292.644531 149.796875 293.863281 139.546875 287.542969 134.734375 C 286.84375 134.199219 286.066406 133.710938 285.238281 133.273438 Z M 233.167969 101.761719 " fill-opacity="1" fill-rule="nonzero"/><path fill="#000000" d="M 243.984375 199.324219 C 242.871094 198.761719 241.203125 197.894531 239.453125 196.617188 L 243.097656 203.132812 L 212.941406 199.050781 C 207.347656 198.296875 202.1875 202.226562 201.433594 207.839844 C 200.675781 213.449219 204.601562 218.613281 210.203125 219.371094 L 260.683594 226.207031 C 261.140625 226.269531 261.601562 226.300781 262.054688 226.300781 C 265.414062 226.300781 268.59375 224.640625 270.515625 221.8125 C 271.726562 220.027344 272.296875 217.945312 272.261719 215.867188 L 245.152344 200.105469 C 244.769531 199.882812 244.394531 199.632812 243.984375 199.324219 Z M 243.984375 199.324219 " fill-opacity="1" fill-rule="nonzero"/><path fill="#000000" d="M 318.039062 100.449219 C 318.675781 100.75 319.292969 101.078125 319.890625 101.441406 C 320.492188 101.800781 321.074219 102.191406 321.636719 102.609375 C 322.199219 103.027344 322.742188 103.472656 323.261719 103.945312 C 323.78125 104.414062 324.277344 104.910156 324.746094 105.429688 C 325.214844 105.953125 325.660156 106.492188 326.078125 107.058594 C 326.496094 107.621094 326.882812 108.203125 327.246094 108.808594 C 327.605469 109.410156 327.933594 110.027344 328.234375 110.664062 C 328.535156 111.296875 328.800781 111.945312 329.039062 112.605469 C 329.273438 113.265625 329.476562 113.9375 329.648438 114.617188 C 329.816406 115.300781 329.953125 115.988281 330.058594 116.683594 C 330.160156 117.375 330.230469 118.074219 330.261719 118.777344 C 330.296875 119.476562 330.296875 120.179688 330.261719 120.878906 C 330.230469 121.582031 330.160156 122.277344 330.058594 122.972656 C 329.957031 123.667969 329.820312 124.355469 329.648438 125.035156 C 329.476562 125.71875 329.273438 126.390625 329.039062 127.050781 C 328.804688 127.710938 328.535156 128.359375 328.234375 128.996094 C 327.9375 129.628906 327.605469 130.246094 327.246094 130.851562 C 326.886719 131.453125 326.496094 132.035156 326.078125 132.597656 C 325.660156 133.164062 325.21875 133.707031 324.746094 134.226562 C 324.277344 134.746094 323.78125 135.242188 323.261719 135.714844 C 322.742188 136.183594 322.203125 136.628906 321.640625 137.046875 C 321.078125 137.464844 320.496094 137.855469 319.894531 138.21875 C 319.292969 138.578125 318.675781 138.910156 318.042969 139.207031 C 317.410156 139.507812 316.761719 139.777344 316.101562 140.015625 C 315.441406 140.25 314.773438 140.453125 314.09375 140.625 C 313.414062 140.796875 312.726562 140.933594 312.035156 141.035156 C 311.339844 141.136719 310.644531 141.207031 309.945312 141.242188 C 309.246094 141.277344 308.542969 141.277344 307.84375 141.242188 C 307.144531 141.207031 306.449219 141.140625 305.753906 141.035156 C 305.0625 140.933594 304.375 140.796875 303.695312 140.625 C 303.015625 140.457031 302.347656 140.25 301.6875 140.015625 C 301.027344 139.777344 300.378906 139.511719 299.746094 139.210938 C 299.113281 138.910156 298.496094 138.578125 297.894531 138.21875 C 297.292969 137.859375 296.710938 137.46875 296.148438 137.050781 C 295.585938 136.632812 295.046875 136.1875 294.527344 135.714844 C 294.007812 135.242188 293.511719 134.75 293.039062 134.226562 C 292.570312 133.707031 292.125 133.164062 291.707031 132.601562 C 291.292969 132.039062 290.902344 131.453125 290.542969 130.851562 C 290.183594 130.25 289.851562 129.632812 289.550781 128.996094 C 289.253906 128.363281 288.984375 127.714844 288.75 127.054688 C 288.511719 126.394531 288.308594 125.722656 288.140625 125.039062 C 287.96875 124.359375 287.832031 123.671875 287.730469 122.976562 C 287.625 122.28125 287.558594 121.585938 287.523438 120.882812 C 287.488281 120.183594 287.488281 119.480469 287.523438 118.78125 C 287.558594 118.078125 287.625 117.378906 287.730469 116.6875 C 287.832031 115.992188 287.96875 115.304688 288.140625 114.621094 C 288.308594 113.941406 288.511719 113.269531 288.75 112.609375 C 288.984375 111.949219 289.253906 111.300781 289.550781 110.664062 C 289.851562 110.03125 290.179688 109.410156 290.542969 108.808594 C 290.902344 108.207031 291.289062 107.625 291.707031 107.058594 C 292.125 106.496094 292.570312 105.953125 293.039062 105.433594 C 293.511719 104.914062 294.003906 104.417969 294.523438 103.945312 C 295.042969 103.476562 295.585938 103.03125 296.148438 102.613281 C 296.710938 102.191406 297.292969 101.804688 297.894531 101.441406 C 298.496094 101.082031 299.113281 100.75 299.746094 100.449219 C 300.378906 100.148438 301.023438 99.882812 301.683594 99.644531 C 302.34375 99.410156 303.015625 99.207031 303.695312 99.035156 C 304.375 98.863281 305.058594 98.726562 305.753906 98.625 C 306.445312 98.519531 307.144531 98.453125 307.84375 98.417969 C 308.542969 98.382812 309.242188 98.382812 309.941406 98.417969 C 310.640625 98.453125 311.339844 98.519531 312.03125 98.625 C 312.726562 98.726562 313.410156 98.863281 314.089844 99.035156 C 314.769531 99.203125 315.441406 99.40625 316.101562 99.644531 C 316.761719 99.878906 317.40625 100.148438 318.039062 100.449219 Z M 318.039062 100.449219 " fill-opacity="1" fill-rule="nonzero"/><path fill="#000000" d="M 272.761719 151.027344 C 275.605469 151.027344 278.15625 149.039062 278.765625 146.144531 C 279.464844 142.820312 277.339844 139.554688 274.023438 138.855469 L 209.769531 125.273438 C 206.445312 124.570312 203.195312 126.699219 202.496094 130.019531 C 201.796875 133.34375 203.917969 136.609375 207.238281 137.308594 L 271.488281 150.890625 C 271.917969 150.980469 272.34375 151.027344 272.761719 151.027344 Z M 272.761719 151.027344 " fill-opacity="1" fill-rule="nonzero"/><g clip-path="url(#1633f53ae4)"><path fill="#000000" d="M 87.113281 236.902344 C 114.875 214.890625 159.679688 187.605469 215.488281 182.628906 L 217.394531 182.457031 L 214.410156 178.746094 L 213.863281 178.800781 C 157.578125 184.386719 112.664062 212.355469 84.898438 234.835938 C 54.824219 259.183594 37.8125 282.539062 37.640625 282.773438 L 39.300781 283.972656 C 39.308594 283.964844 39.351562 283.90625 39.425781 283.804688 L 39.707031 284.015625 C 39.878906 283.785156 56.996094 260.78125 87.113281 236.902344 Z M 87.113281 236.902344 " fill-opacity="1" fill-rule="nonzero"/></g></svg>